<?xml version="1.0" encoding="utf-8"?>
<!-- Generator: Adobe Illustrator 24.0.0, SVG Export Plug-In . SVG Version: 6.00 Build 0)  -->
<svg version="1.1" id="Layer_1" xmlns="http://www.w3.org/2000/svg" xmlns:xlink="http://www.w3.org/1999/xlink" x="0px" y="0px"
	 viewBox="0 0 300 300" style="enable-background:new 0 0 300 300;" xml:space="preserve">
<style type="text/css">
	.st0{fill:#FFECB3;}
	.st1{fill:#263238;}
</style>
<circle class="st1" cx="150" cy="146.5" r="141.5"/>
<g>
	<g>
		<g>
			<path class="st0" d="M114.3,144.78c-3.88-2.2-6.88-5.28-9.01-9.23c-2.13-3.95-3.2-8.44-3.2-13.48c0-5.13,1.11-9.69,3.34-13.66
				c2.23-3.97,5.27-7.05,9.12-9.23c3.85-2.18,8.12-3.27,12.82-3.27c3.78,0,7.08,0.46,9.92,1.38c2.83,0.92,5.56,2.2,8.17,3.85
				c0.39,0.19,0.73,0.53,1.02,1.02c0.29,0.48,0.44,1.02,0.44,1.6c0,0.82-0.28,1.53-0.83,2.11c-0.56,0.58-1.3,0.87-2.22,0.87
				c-0.53,0-1.04-0.12-1.53-0.36c-2.28-1.36-4.55-2.37-6.83-3.05c-2.28-0.68-4.75-1.02-7.41-1.02c-3.68,0-7,0.78-9.95,2.32
				c-2.95,1.55-5.27,3.81-6.94,6.79c-1.67,2.98-2.51,6.53-2.51,10.64c0,3.78,0.79,7.16,2.36,10.13c1.57,2.98,3.85,5.33,6.83,7.05
				c2.98,1.72,6.5,2.58,10.57,2.58c4.55,0,8.79-1.06,12.71-3.2v-13.15h-11.99c-0.82,0-1.53-0.29-2.11-0.87
				c-0.58-0.58-0.87-1.28-0.87-2.11c0-0.82,0.29-1.53,0.87-2.11c0.58-0.58,1.28-0.87,2.11-0.87h14.31c0.97,0,1.79,0.34,2.47,1.02
				c0.68,0.68,1.02,1.5,1.02,2.47v16.49c0,1.02-0.25,1.93-0.76,2.72c-0.51,0.8-1.17,1.39-2,1.78c-5.42,2.71-10.97,4.07-16.64,4.07
				C122.6,148.08,118.17,146.98,114.3,144.78z"/>
		</g>
		<g>
			<path class="st0" d="M161.08,146.78c-0.63-0.63-0.94-1.4-0.94-2.32V99.99c0-0.92,0.31-1.71,0.94-2.36
				c0.63-0.65,1.4-0.98,2.32-0.98h16.56c4.6,0,8.35,0.78,11.26,2.32c2.91,1.55,4.99,3.54,6.25,5.96c1.26,2.42,1.89,5.04,1.89,7.85
				c0,2.81-0.63,5.42-1.89,7.85c-1.26,2.42-3.34,4.41-6.25,5.96c-2.91,1.55-6.66,2.32-11.26,2.32h-13.22v15.55
				c0,0.92-0.33,1.7-0.98,2.32c-0.65,0.63-1.44,0.94-2.36,0.94S161.71,147.41,161.08,146.78z M179.31,122.66
				c4.94,0,8.41-0.94,10.42-2.83s3.01-4.24,3.01-7.05c0-2.81-1-5.16-3.01-7.05s-5.48-2.83-10.42-2.83h-12.57v19.76H179.31z"/>
		</g>
	</g>
</g>
<g>
	<g>
		<g>
			<path class="st0" d="M58.24,186.65l-15.65-7.02c-0.44-0.21-0.79-0.49-1.04-0.84c-0.25-0.35-0.37-0.75-0.37-1.2v-0.31
				c0-0.44,0.12-0.84,0.37-1.2c0.25-0.35,0.59-0.63,1.04-0.84l15.65-7.02c0.21-0.08,0.42-0.12,0.63-0.12c0.44,0,0.82,0.15,1.12,0.45
				c0.3,0.3,0.45,0.67,0.45,1.12c0,0.31-0.1,0.61-0.29,0.88c-0.2,0.27-0.45,0.48-0.76,0.61l-14.12,6.28l14.12,6.28
				c0.31,0.13,0.57,0.33,0.76,0.61c0.2,0.28,0.29,0.57,0.29,0.88c0,0.45-0.15,0.82-0.45,1.12s-0.67,0.45-1.12,0.45
				C58.66,186.77,58.45,186.73,58.24,186.65z"/>
		</g>
		<g>
			<path class="st0" d="M66.17,188.73c-0.34-0.34-0.51-0.76-0.51-1.25v-16.83c0-0.5,0.17-0.92,0.51-1.27
				c0.34-0.35,0.76-0.53,1.25-0.53s0.92,0.18,1.28,0.53c0.35,0.35,0.53,0.78,0.53,1.27v1.61c0.73-1.05,1.61-1.91,2.65-2.59
				c1.03-0.68,2.37-1.02,4.02-1.02c1.46,0,2.72,0.39,3.77,1.18c1.05,0.78,1.79,1.74,2.24,2.86c1.62-2.69,4.03-4.04,7.22-4.04
				c1.46,0,2.69,0.37,3.67,1.1c0.98,0.73,1.71,1.67,2.18,2.82s0.71,2.35,0.71,3.61v11.3c0,0.5-0.18,0.92-0.53,1.25
				c-0.35,0.34-0.78,0.51-1.27,0.51c-0.5,0-0.92-0.17-1.25-0.51c-0.34-0.34-0.51-0.76-0.51-1.25v-10.59c0-1.7-0.3-2.95-0.9-3.75
				c-0.6-0.8-1.63-1.2-3.1-1.2c-1.33,0-2.44,0.35-3.31,1.04c-0.88,0.69-1.65,1.6-2.33,2.73v11.77c0,0.5-0.18,0.92-0.53,1.25
				c-0.35,0.34-0.78,0.51-1.27,0.51c-0.5,0-0.92-0.17-1.25-0.51c-0.34-0.34-0.51-0.76-0.51-1.25v-10.59c0-1.7-0.3-2.95-0.9-3.75
				c-0.6-0.8-1.63-1.2-3.1-1.2c-1.33,0-2.44,0.35-3.31,1.04c-0.88,0.69-1.65,1.6-2.33,2.73v11.77c0,0.5-0.18,0.92-0.53,1.25
				c-0.35,0.34-0.78,0.51-1.28,0.51S66.51,189.07,66.17,188.73z"/>
		</g>
		<g>
			<path class="st0" d="M101.94,164.37c-0.39-0.39-0.59-0.86-0.59-1.41v-0.16c0-0.55,0.2-1.02,0.59-1.41
				c0.39-0.39,0.86-0.59,1.41-0.59h0.24c0.55,0,1.02,0.2,1.41,0.59c0.39,0.39,0.59,0.86,0.59,1.41v0.16c0,0.55-0.2,1.02-0.59,1.41
				c-0.39,0.39-0.86,0.59-1.41,0.59h-0.24C102.8,164.96,102.33,164.77,101.94,164.37z M102.17,188.73
				c-0.34-0.34-0.51-0.76-0.51-1.25v-16.83c0-0.5,0.17-0.92,0.51-1.27c0.34-0.35,0.76-0.53,1.25-0.53c0.52,0,0.95,0.17,1.29,0.51
				c0.34,0.34,0.51,0.77,0.51,1.29v16.83c0,0.5-0.18,0.92-0.53,1.25c-0.35,0.34-0.78,0.51-1.28,0.51S102.51,189.07,102.17,188.73z"
				/>
		</g>
		<g>
			<path class="st0" d="M111.94,188.73c-0.34-0.34-0.51-0.76-0.51-1.25v-16.83c0-0.5,0.17-0.92,0.51-1.27
				c0.34-0.35,0.76-0.53,1.25-0.53s0.92,0.18,1.28,0.53c0.35,0.35,0.53,0.78,0.53,1.27v1.61c0.99-1.1,2.07-1.97,3.22-2.63
				s2.51-0.98,4.08-0.98c1.44,0,2.69,0.34,3.75,1.02c1.06,0.68,1.87,1.61,2.43,2.78c0.56,1.18,0.84,2.47,0.84,3.88v11.14
				c0,0.5-0.18,0.92-0.53,1.25c-0.35,0.34-0.78,0.51-1.27,0.51c-0.5,0-0.92-0.17-1.26-0.51c-0.34-0.34-0.51-0.76-0.51-1.25v-10.75
				c0-3.19-1.44-4.79-4.31-4.79c-1.31,0-2.48,0.34-3.51,1.02c-1.03,0.68-2.01,1.6-2.92,2.75v11.77c0,0.5-0.18,0.92-0.53,1.25
				c-0.35,0.34-0.78,0.51-1.28,0.51S112.28,189.07,111.94,188.73z"/>
		</g>
		<g>
			<path class="st0" d="M136.78,186.71c-1.79-1.82-2.69-4.37-2.69-7.67c0-1.86,0.34-3.57,1.02-5.14c0.68-1.57,1.73-2.84,3.14-3.8
				s3.15-1.45,5.22-1.45c1.93,0,3.61,0.45,5.02,1.35c1.41,0.9,2.48,2.11,3.22,3.61c0.73,1.5,1.1,3.14,1.1,4.92
				c0,0.5-0.16,0.92-0.49,1.25c-0.33,0.34-0.76,0.51-1.31,0.51h-13.3c0.21,1.83,0.89,3.25,2.04,4.28c1.15,1.02,2.76,1.53,4.82,1.53
				c1.1,0,2.06-0.1,2.88-0.31c0.82-0.21,1.63-0.51,2.41-0.9c0.21-0.1,0.44-0.16,0.71-0.16c0.42,0,0.78,0.14,1.1,0.43
				c0.31,0.29,0.47,0.65,0.47,1.1c0,0.58-0.34,1.06-1.02,1.45c-1.02,0.58-2.03,1.01-3.02,1.29c-0.99,0.29-2.27,0.43-3.84,0.43
				C141.06,189.44,138.57,188.53,136.78,186.71z M149.27,177.39c-0.08-1.28-0.41-2.35-1-3.22c-0.59-0.86-1.31-1.5-2.18-1.9
				c-0.86-0.41-1.74-0.61-2.63-0.61s-1.76,0.2-2.63,0.61c-0.86,0.41-1.58,1.04-2.16,1.9c-0.58,0.86-0.9,1.93-0.98,3.22H149.27z"/>
		</g>
		<g>
			<path class="st0" d="M158.02,188.73c-0.34-0.34-0.51-0.76-0.51-1.25v-16.83c0-0.5,0.17-0.92,0.51-1.27
				c0.34-0.35,0.76-0.53,1.25-0.53s0.92,0.18,1.28,0.53c0.35,0.35,0.53,0.78,0.53,1.27v1.69c1.83-2.46,3.88-3.69,6.16-3.69h0.2
				c0.5,0,0.91,0.17,1.24,0.51s0.49,0.76,0.49,1.25c0,0.5-0.17,0.9-0.51,1.22s-0.77,0.47-1.29,0.47h-0.2
				c-1.25,0-2.41,0.31-3.45,0.92c-1.05,0.61-1.92,1.46-2.63,2.53v11.92c0,0.5-0.18,0.92-0.53,1.25c-0.35,0.34-0.78,0.51-1.28,0.51
				S158.36,189.07,158.02,188.73z"/>
		</g>
		<g>
			<path class="st0" d="M174.43,188.73c-0.98-0.47-1.76-1.16-2.33-2.06s-0.86-1.94-0.86-3.12c0-1.93,0.76-3.48,2.29-4.63
				c1.53-1.15,3.77-1.73,6.73-1.73H185v-0.31c0-1.73-0.43-2.97-1.28-3.73c-0.85-0.76-2.18-1.14-3.98-1.14
				c-0.99,0-1.88,0.08-2.65,0.24c-0.77,0.16-1.63,0.39-2.57,0.71c-0.21,0.05-0.38,0.08-0.51,0.08c-0.39,0-0.73-0.14-1.02-0.43
				c-0.29-0.29-0.43-0.64-0.43-1.06c0-0.71,0.34-1.2,1.02-1.49c2.22-0.94,4.48-1.41,6.79-1.41c1.8,0,3.33,0.37,4.57,1.1
				c1.24,0.73,2.16,1.68,2.75,2.84c0.59,1.16,0.88,2.43,0.88,3.79v11.1c0,0.5-0.18,0.92-0.53,1.25c-0.35,0.34-0.78,0.51-1.27,0.51
				c-0.5,0-0.92-0.17-1.25-0.51c-0.34-0.34-0.51-0.76-0.51-1.25v-1.02c-1.94,1.99-4.39,2.98-7.37,2.98
				C176.48,189.44,175.42,189.2,174.43,188.73z M182.3,185.45c1.07-0.56,1.97-1.26,2.71-2.1v-3.29h-4.28c-3.95,0-5.92,1.03-5.92,3.1
				c0,0.94,0.32,1.7,0.96,2.27s1.71,0.86,3.2,0.86C180.12,186.3,181.23,186.02,182.3,185.45z"/>
		</g>
		<g>
			<path class="st0" d="M195.08,188.73c-0.34-0.34-0.51-0.76-0.51-1.25v-25.46c0-0.5,0.17-0.92,0.51-1.27
				c0.34-0.35,0.76-0.53,1.25-0.53c0.52,0,0.95,0.17,1.29,0.51c0.34,0.34,0.51,0.77,0.51,1.29v25.46c0,0.5-0.18,0.92-0.53,1.25
				c-0.35,0.34-0.78,0.51-1.28,0.51S195.42,189.07,195.08,188.73z"/>
		</g>
		<g>
			<path class="st0" d="M203.67,187.67c-0.44-0.31-0.67-0.75-0.67-1.29c0-0.42,0.14-0.78,0.43-1.1c0.29-0.31,0.65-0.47,1.1-0.47
				c0.24,0,0.47,0.05,0.71,0.16c0.84,0.37,1.67,0.65,2.51,0.86s1.78,0.31,2.82,0.31c2.9,0,4.35-0.93,4.35-2.79
				c0-0.6-0.33-1.06-1-1.37c-0.67-0.31-1.76-0.67-3.28-1.06c-1.54-0.37-2.82-0.75-3.82-1.14c-1.01-0.39-1.87-0.99-2.59-1.79
				c-0.72-0.8-1.08-1.85-1.08-3.16c0-1.83,0.66-3.32,1.98-4.47s3.21-1.73,5.67-1.73c2.01,0,3.91,0.33,5.69,0.98
				c0.37,0.1,0.65,0.3,0.84,0.59c0.2,0.29,0.29,0.59,0.29,0.9c0,0.42-0.15,0.78-0.45,1.1c-0.3,0.31-0.67,0.47-1.12,0.47
				c-0.13,0-0.3-0.03-0.51-0.08c-1.52-0.47-3.01-0.71-4.47-0.71c-1.41,0-2.52,0.25-3.31,0.76s-1.2,1.17-1.2,1.98
				c0,0.79,0.37,1.36,1.1,1.73c0.73,0.37,1.87,0.72,3.41,1.06c1.54,0.39,2.8,0.78,3.77,1.16c0.97,0.38,1.8,0.97,2.49,1.78
				c0.69,0.81,1.04,1.9,1.04,3.26c0,1.67-0.66,3.06-1.98,4.16c-1.32,1.1-3.18,1.65-5.59,1.65
				C208.2,189.44,205.82,188.85,203.67,187.67z"/>
		</g>
		<g>
			<path class="st0" d="M222.4,192.3c-0.3-0.31-0.45-0.69-0.45-1.14c0-0.16,0.04-0.35,0.12-0.59l10.39-30.4
				c0.1-0.31,0.29-0.58,0.55-0.79c0.26-0.21,0.59-0.31,0.98-0.31c0.47,0,0.86,0.16,1.16,0.47c0.3,0.31,0.45,0.69,0.45,1.14
				c0,0.16-0.04,0.35-0.12,0.59l-10.39,30.4c-0.1,0.31-0.29,0.57-0.55,0.78c-0.26,0.21-0.59,0.31-0.98,0.31
				C223.09,192.77,222.7,192.61,222.4,192.3z"/>
		</g>
		<g>
			<path class="st0" d="M240.01,186.32c-0.3-0.3-0.45-0.67-0.45-1.12c0-0.31,0.1-0.61,0.29-0.88c0.2-0.27,0.45-0.48,0.76-0.61
				l14.12-6.28l-14.12-6.28c-0.31-0.13-0.57-0.33-0.76-0.61c-0.2-0.28-0.29-0.57-0.29-0.88c0-0.44,0.15-0.82,0.45-1.12
				c0.3-0.3,0.67-0.45,1.12-0.45c0.24,0,0.44,0.04,0.63,0.12l15.65,7.02c0.44,0.21,0.79,0.49,1.04,0.84
				c0.25,0.35,0.37,0.75,0.37,1.2v0.31c0,0.44-0.12,0.84-0.37,1.2c-0.25,0.35-0.6,0.63-1.04,0.84l-15.65,7.02
				c-0.18,0.08-0.39,0.12-0.63,0.12C240.68,186.77,240.31,186.62,240.01,186.32z"/>
		</g>
	</g>
</g>
</svg>
