<?xml version="1.0" encoding="utf-8"?>
<!-- Generator: Adobe Illustrator 24.0.0, SVG Export Plug-In . SVG Version: 6.00 Build 0)  -->
<svg version="1.1" id="Layer_1" xmlns="http://www.w3.org/2000/svg" xmlns:xlink="http://www.w3.org/1999/xlink" x="0px" y="0px"
	 viewBox="0 0 300 300" style="enable-background:new 0 0 300 300;" xml:space="preserve">
<style type="text/css">
	.st0{fill:#263238;}
	.st1{fill:#FFECB3;}
	.st2{fill:#006064;}
</style>
<g>
	<circle class="st0" cx="150" cy="150" r="145"/>
	<g>
		<path class="st1" d="M144.35,156.71v38.85c0,4.79-2.57,8.73-6.5,10.61c-11.3,5.65-24.3,9.58-39.2,9.58
			c-35.94,0-60.08-25.5-60.08-61.27c0-37.14,26.36-61.62,59.56-61.62c19.34,0,31.83,5.48,42.62,12.32c1.54,0.86,3.42,3.08,3.42,6.16
			c0,3.59-2.74,7.02-7.19,7.02c-1.37,0-2.57-0.34-3.59-0.86c-10.1-5.99-20.37-9.58-33.55-9.58c-25.84,0-45.7,16.6-45.7,46.56
			c0,26.36,17.12,46.55,46.55,46.55c11.98,0,22.08-3.25,29.95-7.53v-30.98h-28.24c-3.94,0-7.02-3.08-7.02-7.02s3.08-7.02,7.02-7.02
			h33.72C140.75,148.5,144.35,152.09,144.35,156.71z"/>
		<path class="st1" d="M265.52,132.58c0,18.14-11.13,38-45.7,38h-31.15v36.63c0,4.28-3.59,7.7-7.87,7.7c-4.28,0-7.7-3.42-7.7-7.7
			V102.46c0-4.28,3.42-7.87,7.7-7.87h39.02C254.4,94.58,265.52,114.44,265.52,132.58z M249.95,132.58
			c0-11.13-6.16-23.28-31.66-23.28h-29.61v46.56h29.61C243.79,155.86,249.95,143.71,249.95,132.58z"/>
	</g>
</g>
</svg>
