<svg xmlns="http://www.w3.org/2000/svg" viewBox="0 0 960 560"><defs><style>.cls-1{fill:#ffecb3;}.cls-2{fill:#00a99d;}.cls-10,.cls-11,.cls-14,.cls-2,.cls-3,.cls-4,.cls-5,.cls-6,.cls-7,.cls-8,.cls-9{stroke:#263238;}.cls-10,.cls-11,.cls-12,.cls-13,.cls-14,.cls-2,.cls-6,.cls-8,.cls-9{stroke-linecap:round;stroke-linejoin:round;}.cls-10,.cls-12,.cls-2,.cls-6,.cls-7,.cls-8,.cls-9{stroke-width:5px;}.cls-11,.cls-3,.cls-5,.cls-8{fill:#fff;}.cls-3,.cls-4,.cls-5,.cls-7{stroke-miterlimit:10;}.cls-3{stroke-width:11px;}.cls-12,.cls-4,.cls-9{fill:#006064;}.cls-11,.cls-4,.cls-5{stroke-width:8px;}.cls-6,.cls-7{fill:none;}.cls-10,.cls-13,.cls-14{fill:#4db6ac;}.cls-12{stroke:#006064;}.cls-13{stroke:#4db6ac;}.cls-13,.cls-14{stroke-width:2px;}</style></defs><title>under_construction</title><g id="background"><path class="cls-1" d="M376.5,388.5l-76-228,46-67,64,54,55,243s172,14.55,232,22.19l0-.19-16-37,16-33,41,14,17,65h-.18l-21.82-86,41-39,34,44-11,37-13.58,49.11-.42-.11L800,370l23.5-3.5,18,18-32,54S847,448,847,476c0,32.31-17,63-368,63-353,0-358-36.69-358-69,0-38,42.14-42.83,110.5-53.49l-101-101,7-94L228,230l73.5,169.5-105-211,14-79,81,23Z"/></g><g id="Layer_1" data-name="Layer 1"><path class="cls-2" d="M569.5,169.5v-43H425.94a7.57,7.57,0,0,1-6.47-11.5l10.82-17.85c1.37-2.27,3.83-3.65,6.47-4.65H569.5V66.76A12.26,12.26,0,0,1,581.76,54.5h11.48A12.26,12.26,0,0,1,605.5,66.76V92.5h68.74c2.64,1,5.1,2.38,6.47,4.65L691.53,115a7.57,7.57,0,0,1-6.47,11.5H605.5v43"/><rect class="cls-3" x="302" y="170" width="366" height="220" rx="27.99"/><rect class="cls-4" x="393.5" y="217.5" width="184" height="46" rx="23"/><rect class="cls-5" x="356.5" y="287.5" width="118" height="80" rx="22.24"/><rect class="cls-5" x="496.5" y="287.5" width="118" height="80" rx="22.24"/><rect class="cls-5" x="378.5" y="425.5" width="217" height="46" rx="21.76"/><line class="cls-6" x1="436.5" y1="93.5" x2="461.5" y2="126.5"/><line class="cls-6" x1="466.5" y1="93.5" x2="491.5" y2="126.5"/><line class="cls-6" x1="496.5" y1="93.5" x2="521.5" y2="126.5"/><line class="cls-6" x1="526.5" y1="93.5" x2="551.5" y2="126.5"/><line class="cls-6" x1="616.5" y1="93.5" x2="641.5" y2="126.5"/><line class="cls-6" x1="646.5" y1="93.5" x2="671.5" y2="126.5"/><line class="cls-6" x1="466.5" y1="93.5" x2="461.5" y2="126.5"/><line class="cls-6" x1="496.5" y1="93.5" x2="491.5" y2="126.5"/><line class="cls-6" x1="526.5" y1="94.5" x2="521.5" y2="126.5"/><line class="cls-6" x1="602.5" y1="60.5" x2="569.5" y2="85.5"/><line class="cls-6" x1="591.5" y1="128.5" x2="569.5" y2="145.5"/><line class="cls-7" x1="605.39" y1="149.83" x2="580.39" y2="168.83"/><line class="cls-6" x1="602.5" y1="92.5" x2="569.5" y2="87.5"/><line class="cls-7" x1="603.5" y1="150.5" x2="570.5" y2="145.5"/><line class="cls-6" x1="551.5" y1="126.5" x2="555.5" y2="93.5"/><line class="cls-6" x1="671.5" y1="126.5" x2="674.5" y2="93.5"/><line class="cls-6" x1="641.5" y1="126.5" x2="646.5" y2="93.5"/><path class="cls-8" d="M594.32,131H576.68c-.34,0-.68,0-1,0-9.59-.65-15.32-11.07-11.29-19.8C566.77,106,570.45,98,573.17,92a13.71,13.71,0,0,1,12.49-8h8.66A14.68,14.68,0,0,1,609,98.68v17.64A14.68,14.68,0,0,1,594.32,131Z"/><line class="cls-6" x1="416.5" y1="219.5" x2="485.5" y2="130.5"/><line class="cls-6" x1="554.5" y1="219.5" x2="485.5" y2="130.5"/><line class="cls-6" x1="437" y1="94" x2="573.5" y2="57.5"/><line class="cls-6" x1="677" y1="94" x2="601.5" y2="57.5"/><rect class="cls-9" x="577.5" y="308.5" width="20" height="58"/><rect class="cls-8" x="557.5" y="325.5" width="20" height="41"/><rect class="cls-10" x="537.5" y="333.5" width="20" height="33"/><rect class="cls-8" x="517.5" y="318.5" width="20" height="48"/><rect class="cls-11" x="474.5" y="392.5" width="22" height="57"/><line class="cls-2" x1="393.5" y1="434.5" x2="393.5" y2="522.5"/><line class="cls-2" x1="375.5" y1="522.5" x2="411.5" y2="522.5"/><line class="cls-2" x1="250.5" y1="434.5" x2="250.5" y2="522.5"/><rect class="cls-2" x="223.5" y="448.5" width="196" height="44"/><line class="cls-2" x1="232.5" y1="522.5" x2="268.5" y2="522.5"/><line class="cls-2" x1="243.5" y1="448.5" x2="223.5" y2="492.5"/><line class="cls-2" x1="273.5" y1="448.5" x2="253.5" y2="492.5"/><line class="cls-2" x1="303.5" y1="448.5" x2="283.5" y2="492.5"/><line class="cls-2" x1="333.5" y1="448.5" x2="313.5" y2="492.5"/><line class="cls-2" x1="363.5" y1="448.5" x2="343.5" y2="492.5"/><line class="cls-2" x1="393.5" y1="448.5" x2="373.5" y2="492.5"/><line class="cls-2" x1="419.5" y1="457.5" x2="403.5" y2="492.5"/><ellipse class="cls-12" cx="394.64" cy="330.92" rx="24.64" ry="23.35"/><path class="cls-9" d="M401.6,308.52,403,304l-.33-.1a31.33,31.33,0,0,0-8.05-1v4.73"/><path class="cls-9" d="M388.13,308.4l-1.33-4.57h0A30.51,30.51,0,0,0,379,307h0l2.63,4"/><path class="cls-9" d="M376.28,315.34l-3.72-3.16a28,28,0,0,0-4.69,6.68h0l4.52,2"/><path class="cls-9" d="M370.3,327.26l-4.93-.74h0a27.23,27.23,0,0,0-.12,8h0l4.95-.61"/><path class="cls-9" d="M372.1,340.34l-4.58,1.91h0a51.5,51.5,0,0,0,4.49,6.79l3.82-3.06"/><path class="cls-9" d="M381.09,350.41l-2.75,4h0a30,30,0,0,0,7.65,3.42h0l1.45-4.53"/><path class="cls-9" d="M394.41,354.26l-.05,4.74h.28a31.36,31.36,0,0,0,8.11-1.06h0l-1.37-4.56"/><path class="cls-9" d="M407.8,350.65l2.67,4h0a55,55,0,0,0,6.44-5.21l-3.76-3.12"/><path class="cls-9" d="M417,340.74l4.54,2h0a26.69,26.69,0,0,0,2.43-7.68h0l-4.95-.7"/><path class="cls-9" d="M419,327.69l5-.65h0a26.89,26.89,0,0,0-2.35-7.7h0l-4.55,2"/><path class="cls-9" d="M408,311.3l2.71-4h0a29.48,29.48,0,0,1,6.38,5.26h0l-3.79,3.1"/><ellipse class="cls-9" cx="394.64" cy="330.92" rx="18.57" ry="17.59"/><ellipse class="cls-13" cx="448.6" cy="338.49" rx="17.12" ry="16.22"/><path class="cls-14" d="M453.44,322.92l1-3.15-.23-.07a21.42,21.42,0,0,0-5.59-.73v3.29"/><path class="cls-14" d="M444.07,322.84l-.92-3.18h0a21,21,0,0,0-5.39,2.23h0l1.83,2.8"/><path class="cls-14" d="M435.84,327.66l-2.59-2.19A19.66,19.66,0,0,0,430,330.1h0l3.13,1.42"/><path class="cls-14" d="M431.69,335.94l-3.44-.51h0a18.74,18.74,0,0,0-.08,5.57h0l3.45-.43"/><path class="cls-14" d="M432.93,345l-3.18,1.33h0a36,36,0,0,0,3.12,4.73l2.65-2.13"/><path class="cls-14" d="M439.18,352l-1.91,2.75h0a20.78,20.78,0,0,0,5.32,2.38h0l1-3.15"/><path class="cls-14" d="M448.44,354.71l0,3.29h.2a21.73,21.73,0,0,0,5.63-.74h0l-1-3.17"/><path class="cls-14" d="M457.74,352.2,459.6,355h0a37.78,37.78,0,0,0,4.47-3.62l-2.61-2.18"/><path class="cls-14" d="M464.13,345.31l3.15,1.39h0a18.69,18.69,0,0,0,1.68-5.34h0l-3.44-.48"/><path class="cls-14" d="M465.56,336.25l3.44-.46h0a18.46,18.46,0,0,0-1.63-5.35h0l-3.16,1.36"/><path class="cls-14" d="M457.88,324.85l1.88-2.76h0a20.68,20.68,0,0,1,4.44,3.66h0l-2.63,2.15"/><ellipse class="cls-14" cx="448.6" cy="338.49" rx="12.9" ry="12.23"/></g></svg>