<svg xmlns="http://www.w3.org/2000/svg" viewBox="0 0 960 560"><defs><style>.cls-1{fill:#ffecb3;}.cls-2,.cls-3,.cls-7{fill:#fff;}.cls-10,.cls-11,.cls-12,.cls-2,.cls-3,.cls-5,.cls-7,.cls-8,.cls-9{stroke:#263238;}.cls-2,.cls-5,.cls-7{stroke-miterlimit:10;}.cls-2{stroke-width:11px;}.cls-10,.cls-11,.cls-12,.cls-3,.cls-8,.cls-9{stroke-linecap:round;stroke-linejoin:round;}.cls-11,.cls-3,.cls-7,.cls-9{stroke-width:8px;}.cls-4{fill:#263238;}.cls-11,.cls-12,.cls-5{fill:#4db6ac;}.cls-10,.cls-12,.cls-5,.cls-8{stroke-width:5px;}.cls-6{fill:#0a2d2d;}.cls-8,.cls-9{fill:none;}.cls-10{fill:#006064;}</style></defs><title>under_construction</title><g id="background"><path class="cls-1" d="M376.5,388.5l-76-228,46-67,64,54,55,243s172,14.55,232,22.19l0-.19-16-37,16-33,41,14,17,65h-.18l-21.82-86,41-39,34,44-11,37-13.58,49.11-.42-.11L800,370l23.5-3.5,18,18-32,54S847,448,847,476c0,32.31-17,63-368,63-353,0-358-36.69-358-69,0-38,42.14-42.83,110.5-53.49l-101-101,7-94L228,230l73.5,169.5-105-211,14-79,81,23Z"/></g><g id="Layer_1" data-name="Layer 1"><rect class="cls-2" x="302" y="200" width="366" height="220" rx="27.99"/><path class="cls-3" d="M320.5,433.5l-21,48s0,11,22,11c21,0,21-11,21-11Z"/><path class="cls-4" d="M354.11,361.11q-4.38-3.12-4.38-11.28V324.51a12.62,12.62,0,0,0-.6-4.2,6.75,6.75,0,0,0-3-3.18,21.11,21.11,0,0,0-7.44-2.34,4.84,4.84,0,0,1,0-9.6,21.11,21.11,0,0,0,7.44-2.34,6.75,6.75,0,0,0,3-3.18,12.62,12.62,0,0,0,.6-4.2V270.15q0-8.16,4.38-11.28t12.42-3.12H368a4.2,4.2,0,0,1,0,8.4h-1.8q-4.56,0-5.82,1.44a5.27,5.27,0,0,0-1.26,3.6v26.64q0,10.2-10.8,14.16,10.8,4,10.8,14.16v26.64a5.27,5.27,0,0,0,1.26,3.6q1.26,1.44,5.82,1.44H368a4.2,4.2,0,0,1,0,8.4h-1.44Q358.49,364.23,354.11,361.11Z"/><path class="cls-4" d="M598.54,363a4.2,4.2,0,0,1,2.94-7.14h1.8q4.56,0,5.82-1.44a5.27,5.27,0,0,0,1.26-3.6V324.15q0-10.2,10.8-14.16-10.8-4-10.8-14.16V269.19a5.27,5.27,0,0,0-1.26-3.6q-1.26-1.44-5.82-1.44h-1.8a4.2,4.2,0,0,1,0-8.4h1.44q8,0,12.42,3.12t4.38,11.28v25.32a12.62,12.62,0,0,0,.6,4.2,6.75,6.75,0,0,0,3,3.18,21.11,21.11,0,0,0,7.44,2.34,4.84,4.84,0,0,1,0,9.6,21.11,21.11,0,0,0-7.44,2.34,6.75,6.75,0,0,0-3,3.18,12.62,12.62,0,0,0-.6,4.2v25.32q0,8.16-4.38,11.28t-12.42,3.12h-1.44A4,4,0,0,1,598.54,363Z"/><rect class="cls-3" x="627.95" y="225.87" width="152.57" height="26" rx="13" transform="translate(257.89 -355.92) rotate(34.38)"/><path class="cls-5" d="M394.82,332.08a4.76,4.76,0,0,1-1.34-3.42,5.71,5.71,0,0,1,.54-2.14L421.3,262.1a8.25,8.25,0,0,1,2.41-3.15,5.92,5.92,0,0,1,3.8-1.24h1.07a5.94,5.94,0,0,1,3.8,1.24,8.35,8.35,0,0,1,2.41,3.15l27.28,64.42a5.71,5.71,0,0,1,.54,2.14,4.76,4.76,0,0,1-1.34,3.42,4.6,4.6,0,0,1-3.48,1.39,4.93,4.93,0,0,1-2.73-.8,5.16,5.16,0,0,1-1.87-2.2l-7-16.69H409.85l-7,16.69a5.16,5.16,0,0,1-1.87,2.2,4.93,4.93,0,0,1-2.73.8A4.6,4.6,0,0,1,394.82,332.08ZM413.6,304.9h28.89L428,270.13Z"/><path class="cls-5" d="M479.72,332.08a4.69,4.69,0,0,1-1.39-3.42V263.17a4.89,4.89,0,0,1,1.39-3.48,4.58,4.58,0,0,1,3.43-1.44h24.39q10.17,0,16.59,3.42a21.14,21.14,0,0,1,9.2,8.78,25.4,25.4,0,0,1,0,23.11,21.07,21.07,0,0,1-9.2,8.77q-6.42,3.44-16.59,3.43H488.07v22.9a4.58,4.58,0,0,1-1.44,3.42,4.85,4.85,0,0,1-3.48,1.39A4.65,4.65,0,0,1,479.72,332.08Zm26.86-35.52q10.92,0,15.36-4.18a14.34,14.34,0,0,0,0-20.75q-4.46-4.19-15.36-4.18H488.07v29.11Z"/><path class="cls-5" d="M551.63,332.08a4.65,4.65,0,0,1-1.39-3.42v-66a4.81,4.81,0,0,1,1.39-3.48,4.57,4.57,0,0,1,3.42-1.45,4.93,4.93,0,0,1,4.92,4.93v66a4.58,4.58,0,0,1-1.44,3.42,4.81,4.81,0,0,1-3.48,1.39A4.63,4.63,0,0,1,551.63,332.08Z"/><path class="cls-6" d="M421,359.53a5.7,5.7,0,0,1-1.75-4.19v-.64a6,6,0,0,1,5.93-5.93h1.06a6,6,0,0,1,5.94,5.93v.64a6,6,0,0,1-5.94,5.94h-1.06A5.72,5.72,0,0,1,421,359.53Z"/><path class="cls-6" d="M476.09,359.53a5.7,5.7,0,0,1-1.75-4.19v-.64a6,6,0,0,1,5.93-5.93h1.06a6,6,0,0,1,5.94,5.93v.64a6,6,0,0,1-5.94,5.94h-1.06A5.72,5.72,0,0,1,476.09,359.53Z"/><path class="cls-6" d="M531.21,359.53a5.7,5.7,0,0,1-1.75-4.19v-.64a6,6,0,0,1,5.93-5.93h1.06a6,6,0,0,1,5.94,5.93v.64a6,6,0,0,1-5.94,5.94h-1.06A5.72,5.72,0,0,1,531.21,359.53Z"/><circle class="cls-7" cx="587.5" cy="158.5" r="72"/><circle class="cls-7" cx="587.5" cy="158.5" r="59"/><line class="cls-8" x1="662.5" y1="194.5" x2="669" y2="231"/><line class="cls-8" x1="683" y1="209" x2="690" y2="245"/><line class="cls-8" x1="704" y1="222" x2="711" y2="259"/><line class="cls-8" x1="725" y1="237" x2="731" y2="273"/><line class="cls-8" x1="746" y1="251" x2="751" y2="285"/><polygon class="cls-3" points="689.45 478.46 621.08 478.46 598 433.17 689.45 433.17 689.45 478.46"/><circle class="cls-9" cx="600.68" cy="492.05" r="16.95"/><polyline class="cls-8" points="689.89 478.67 689.89 509 647.07 480.45 600.68 492.05"/><polyline class="cls-8" points="734.5 399.26 704.17 403.73 689.89 433.17"/><polygon class="cls-10" points="611.38 372.5 590.86 401.05 617.63 429.6 636.36 429.6 631.9 391.24 611.38 372.5"/><polygon class="cls-10" points="650.64 376.96 668.48 393.91 658.67 429.6 636.36 429.6 632.79 401.05 650.64 376.96"/><polygon class="cls-10" points="682.75 401.05 688.11 410.86 673.83 429.6 658.67 429.6 665.41 405.06 682.75 401.05"/><path class="cls-4" d="M570.42,170.68l-19.15-8.59a3.15,3.15,0,0,1-1.28-1,2.5,2.5,0,0,1-.45-1.46v-.39a2.5,2.5,0,0,1,.45-1.46,3.25,3.25,0,0,1,1.28-1l19.15-8.59a2.28,2.28,0,0,1,.77-.14,1.82,1.82,0,0,1,1.36.55,1.87,1.87,0,0,1,.56,1.37,1.84,1.84,0,0,1-.36,1.08,2.13,2.13,0,0,1-.94.74l-17.28,7.68,17.28,7.68a2.16,2.16,0,0,1,.94.75,1.8,1.8,0,0,1,.36,1.08,1.9,1.9,0,0,1-1.92,1.92A2.07,2.07,0,0,1,570.42,170.68Z"/><path class="cls-4" d="M578.55,177.6a2,2,0,0,1-.55-1.4,2.31,2.31,0,0,1,.15-.72l12.72-37.2a2,2,0,0,1,.67-1,1.89,1.89,0,0,1,1.2-.38,1.84,1.84,0,0,1,1.41.58,1.92,1.92,0,0,1,.56,1.39,2.31,2.31,0,0,1-.15.72l-12.72,37.2a2.08,2.08,0,0,1-.67,1,2.07,2.07,0,0,1-2.62-.19Z"/><path class="cls-4" d="M600.1,170.28a1.9,1.9,0,0,1-.55-1.37,1.8,1.8,0,0,1,.36-1.08,2.1,2.1,0,0,1,.94-.75l17.28-7.68-17.28-7.68a2.08,2.08,0,0,1-.94-.74,1.84,1.84,0,0,1-.36-1.08,1.9,1.9,0,0,1,.55-1.37,1.86,1.86,0,0,1,1.37-.55,2,2,0,0,1,.77.14l19.15,8.59a3.25,3.25,0,0,1,1.28,1,2.5,2.5,0,0,1,.45,1.46v.39a2.5,2.5,0,0,1-.45,1.46,3.15,3.15,0,0,1-1.28,1l-19.15,8.59a1.86,1.86,0,0,1-.77.15A1.9,1.9,0,0,1,600.1,170.28Z"/><path class="cls-11" d="M259.28,372.5l-26,59.39s0,13.61,27.22,13.61c26,0,26-13.61,26-13.61Z"/><path class="cls-12" d="M241,418s2,6,18.9,6c15.1,0,19.1-6,19.1-6"/><path class="cls-8" d="M249,398s-6,7,10.9,7c15.1,0,10.1-7,10.1-7"/></g></svg>