<svg xmlns="http://www.w3.org/2000/svg" viewBox="0 0 960 560"><defs><style>.cls-1{fill:#ffecb3;}.cls-2,.cls-3{fill:#fff;}.cls-10,.cls-11,.cls-2,.cls-3,.cls-5,.cls-6,.cls-7,.cls-8,.cls-9{stroke:#263238;}.cls-10,.cls-11,.cls-2,.cls-4,.cls-5,.cls-6,.cls-7,.cls-8,.cls-9{stroke-linecap:round;stroke-linejoin:round;}.cls-10,.cls-2,.cls-6,.cls-9{stroke-width:8px;}.cls-3{stroke-miterlimit:10;stroke-width:11px;}.cls-4,.cls-5,.cls-9{fill:#006064;}.cls-4{stroke:#006064;}.cls-11,.cls-4,.cls-5,.cls-7,.cls-8{stroke-width:5px;}.cls-6,.cls-7{fill:#4db6ac;}.cls-10,.cls-8{fill:none;}.cls-11{fill:#00a99d;}</style></defs><title>under_construction</title><g id="background"><path class="cls-1" d="M376.5,388.5l-76-228,46-67,64,54,55,243s172,14.55,232,22.19l0-.19-16-37,16-33,41,14,17,65h-.18l-21.82-86,41-39,34,44-11,37-13.58,49.11-.42-.11L800,370l23.5-3.5,18,18-32,54S847,448,847,476c0,32.31-17,63-368,63-353,0-358-36.69-358-69,0-38,42.14-42.83,110.5-53.49l-101-101,7-94L228,230l73.5,169.5-105-211,14-79,81,23Z"/></g><g id="Layer_1" data-name="Layer 1"><path class="cls-2" d="M654,440.5l-21,48s0,11,22,11c21,0,21-11,21-11Z"/><rect class="cls-3" x="403.5" y="192" width="366" height="220" rx="27.99"/><ellipse class="cls-4" cx="628.23" cy="315.86" rx="40.93" ry="38.78"/><path class="cls-5" d="M639.8,278.66l2.34-7.55-.53-.16a52,52,0,0,0-13.38-1.74v7.87"/><path class="cls-5" d="M617.41,278.46l-2.19-7.59h0a50.62,50.62,0,0,0-12.88,5.32h0l4.37,6.69"/><path class="cls-5" d="M597.74,290l-6.18-5.25a46.51,46.51,0,0,0-7.8,11.08h0l7.5,3.38"/><path class="cls-5" d="M587.81,309.78l-8.2-1.24h0a45.29,45.29,0,0,0-.6,7.32,45.81,45.81,0,0,0,.4,6h0l8.23-1"/><path class="cls-5" d="M590.79,331.51l-7.6,3.17h0c1.91,4.11,7.46,11.28,7.46,11.28l6.34-5.08"/><path class="cls-5" d="M605.72,348.24l-4.57,6.57h0a50.26,50.26,0,0,0,12.72,5.66h0L616.3,353"/><path class="cls-5" d="M627.85,354.63l-.08,7.87h.46a51.87,51.87,0,0,0,13.47-1.77h0l-2.27-7.57"/><path class="cls-5" d="M650.09,348.64l4.44,6.65h0c4-2.39,10.69-8.65,10.69-8.65L659,341.45"/><path class="cls-5" d="M665.36,332.18l7.53,3.31h0a44.2,44.2,0,0,0,4-12.76h0l-8.22-1.16"/><path class="cls-5" d="M668.77,310.5l8.22-1.08h0a44.68,44.68,0,0,0-3.9-12.79h0l-7.57,3.25"/><path class="cls-5" d="M650.42,283.27l4.5-6.61h0a48.76,48.76,0,0,1,10.6,8.75h0l-6.29,5.14"/><ellipse class="cls-5" cx="628.23" cy="315.86" rx="30.84" ry="29.22"/><path class="cls-2" d="M620,332.5V357c0,9.11-28.88,16.5-64.5,16.5S491,366.11,491,357V332.5"/><path class="cls-2" d="M620,333c0,9.11-28.88,16.5-64.5,16.5S491,342.11,491,333s29.38-8.5,65-8.5S620,323.89,620,333Z"/><path class="cls-2" d="M620,293.5V318c0,9.11-28.88,16.5-64.5,16.5S491,327.11,491,318V293.5"/><path class="cls-2" d="M620,294c0,9.11-28.88,16.5-64.5,16.5S491,303.11,491,294s30.38-10.5,66-10.5S620,284.89,620,294Z"/><path class="cls-2" d="M620,254.5V279c0,9.11-28.88,16.5-64.5,16.5S491,288.11,491,279V254.5"/><ellipse class="cls-2" cx="555.5" cy="253" rx="64.5" ry="16.5"/><path class="cls-6" d="M719.78,386.5l-26,59.39s0,13.61,27.22,13.61c26,0,26-13.61,26-13.61Z"/><path class="cls-7" d="M701.5,432s2,6,18.9,6c15.1,0,19.1-6,19.1-6"/><path class="cls-8" d="M709.5,412s-6,7,10.9,7c15.1,0,10.1-7,10.1-7"/><rect class="cls-9" x="210.5" y="454" width="233" height="26"/><circle class="cls-2" cx="280.75" cy="471.75" r="25.25"/><circle class="cls-2" cx="398.43" cy="471.75" r="25.25"/><polygon class="cls-2" points="200.5 365 242.5 438 358.5 438 373.5 365 200.5 365"/><polygon class="cls-2" points="378.5 388 414.5 388 443.5 416 443.5 438 378.5 438 378.5 388"/><line class="cls-10" x1="419.5" y1="365" x2="349.5" y2="365"/><line class="cls-11" x1="267.5" y1="365" x2="237.5" y2="430"/><line class="cls-11" x1="237.5" y1="365" x2="220.5" y2="400"/><line class="cls-11" x1="297.5" y1="365" x2="265.5" y2="435"/><line class="cls-11" x1="326.5" y1="367" x2="295.5" y2="435"/><line class="cls-11" x1="356.5" y1="366" x2="325.5" y2="435"/><polygon class="cls-11" points="340.5 296 358.5 321 338.5 365 306 365 310.5 310 340.5 296"/><polygon class="cls-11" points="252.5 307 266.5 274 305.5 287 310.5 310 305.5 365 272.29 365 252.5 307"/><polygon class="cls-11" points="219.5 310 200.5 339 219.5 365 272.5 365 252.5 307 219.5 310"/></g></svg>